<svg width="22" height="18" viewBox="0 0 22 18" fill="none" xmlns="http://www.w3.org/2000/svg">
<path d="M10.6897 18C10.4598 17.9997 10.2394 17.9099 10.0769 17.7503L1.65566 9.47622C0.595451 8.43509 -0.000107405 7.02308 1.45287e-08 5.55081C5.32032e-05 4.82181 0.146344 4.09997 0.430521 3.42648C0.714698 2.753 1.13119 2.14107 1.65623 1.62563C2.18127 1.11019 2.80456 0.701333 3.49053 0.422407C4.17649 0.143482 4.91169 -5.22097e-05 5.65416 1.42652e-08C7.15362 0.000105485 8.59163 0.585063 9.65184 1.62619L10.6897 2.64639L11.7288 1.62619C12.789 0.585063 14.227 0.000105485 15.7265 1.42652e-08C17.2259 -0.000105457 18.664 0.58465 19.7244 1.62563C20.7848 2.66661 21.3805 4.07854 21.3806 5.55081C21.3807 7.02308 20.7852 8.43509 19.725 9.47622L11.3038 17.748C11.2233 17.8276 11.1277 17.8908 11.0223 17.9341C10.917 17.9773 10.8039 17.9997 10.6897 18V18ZM5.64917 1.70605C4.87397 1.70615 4.1162 1.93191 3.47166 2.35479C2.82711 2.77767 2.32473 3.37868 2.02801 4.08186C1.7313 4.78503 1.65357 5.5588 1.80466 6.30534C1.95575 7.05188 2.32887 7.73768 2.87685 8.27605L10.6852 15.9461L18.4946 8.27605C19.2294 7.55408 19.6421 6.57521 19.6421 5.55458C19.6421 4.53395 19.2294 3.55508 18.4946 2.83311C17.7484 2.13218 16.7556 1.74096 15.7229 1.74096C14.6902 1.74096 13.6973 2.13218 12.9511 2.83311L11.3049 4.45508C11.1391 4.60852 10.9199 4.69398 10.692 4.69398C10.4642 4.69398 10.2449 4.60852 10.0791 4.45508L8.42607 2.83311C8.06281 2.47461 7.63075 2.1904 7.15488 1.99694C6.67901 1.80348 6.16879 1.70461 5.65375 1.70605H5.64917Z" fill="#211100"/>
</svg>
