<?xml version="1.0" encoding="UTF-8"?>
<svg id="Layer_1" xmlns="http://www.w3.org/2000/svg" version="1.1" viewBox="0 0 300 113.456">
  <!-- Generator: Adobe Illustrator 30.3.0, SVG Export Plug-In . SVG Version: 2.1.3 Build 182)  -->
  <path d="M90.076,1.365h15.016v110.119h-15.016V1.365Z" fill="#211100"/>
  <path d="M114.193,72.958c0-22.448,19.111-40.346,46.717-40.346,28.212,0,46.869,17.898,46.869,40.346,0,22.6-18.808,40.499-46.869,40.499-27.909,0-46.717-17.898-46.717-40.499ZM192.156,72.958c0-16.381-13.044-27.757-31.246-27.757s-31.094,11.679-31.094,27.757c0,16.23,12.893,27.909,31.094,27.909s31.246-11.679,31.246-27.909Z" fill="#211100"/>
  <path d="M217.183,34.583h14.258l.455,15.168c4.55-10.011,13.651-17.14,27.302-17.14,4.854,0,9.252.91,13.045,2.275l1.82,14.106c-5.309-1.668-10.769-2.882-16.836-2.882-14.561,0-25.027,8.797-25.027,23.359v42.015h-15.016V34.583Z" fill="#211100"/>
  <path d="M277.855,9.556c0-5.612,5.006-9.404,11.073-9.404,5.916,0,11.073,3.792,11.073,9.404,0,5.46-5.157,9.404-11.073,9.404-6.067,0-11.073-3.944-11.073-9.404ZM281.343,34.583h15.319v76.901h-15.319V34.583Z" fill="#211100"/>
  <path d="M62.203,44.163c-6.458.814-11.866,3.857-14.855,7.841l-.107-18.179c0-15.471,10.618-22.6,34.431-22.448L71.813,0c-26.24.758-39.133,13.954-39.133,34.128v11.516c-2.61-3.988-7.384-7.335-13.322-8.837-7.806-1.974-15.362-.189-19.358,4.035,1.508,5.616,7.307,10.778,15.113,12.752,6.761,1.71,13.332.598,17.567-2.474v60.364h15.016l-.32-54.609c3.844,3.482,10.159,5.33,16.993,4.469,7.988-1.007,14.373-5.424,16.555-10.814-3.452-4.68-10.733-7.373-18.722-6.366Z" fill="#211100"/>
</svg>