<?xml version="1.0" encoding="UTF-8"?>
<svg id="Layer_1" xmlns="http://www.w3.org/2000/svg" version="1.1" viewBox="0 0 100 136.501">
  <!-- Generator: Adobe Illustrator 30.3.0, SVG Export Plug-In . SVG Version: 2.1.3 Build 182)  -->
  <path d="M76.161,54.073c-7.907.997-14.529,4.723-18.188,9.6l-.13-22.259c0-18.943,13-27.672,42.158-27.486L87.928,0c-32.129.929-47.915,17.086-47.915,41.786v14.1c-3.195-4.883-9.041-8.981-16.311-10.82-9.557-2.417-18.809-.231-23.702,4.941,1.846,6.876,8.947,13.197,18.504,15.614,8.278,2.093,16.323.732,21.509-3.03v73.91h18.386l-.392-66.864c4.707,4.264,12.438,6.527,20.806,5.471,9.781-1.233,17.599-6.641,20.27-13.241-4.226-5.73-13.142-9.028-22.923-7.794Z" fill="#211100"/>
</svg>