<?xml version="1.0" encoding="UTF-8"?>
<svg id="Layer_1" xmlns="http://www.w3.org/2000/svg" xmlns:xlink="http://www.w3.org/1999/xlink" version="1.1" viewBox="0 0 96 96">
  <!-- Generator: Adobe Illustrator 30.3.0, SVG Export Plug-In . SVG Version: 2.1.3 Build 182)  -->
  <defs>
    <linearGradient id="linear-gradient" x1="47.402" y1="143.879" x2="47.402" y2="73.848" gradientTransform="translate(0 156.863) scale(1 -1)" gradientUnits="userSpaceOnUse">
      <stop offset="0" stop-color="#eafd7e"/>
      <stop offset="1" stop-color="#bdcb3c"/>
    </linearGradient>
  </defs>
  <rect y="0" width="96" height="96" rx="7.996" ry="7.996" fill="#211100"/>
  <path d="M60.823,40.726c-4.057.512-7.454,2.423-9.331,4.925l-.067-11.42c0-9.719,6.67-14.197,21.629-14.102l-6.194-7.146c-16.484.477-24.583,8.766-24.583,21.438v7.234c-1.639-2.505-4.638-4.608-8.368-5.551-4.903-1.24-9.65-.119-12.16,2.535.947,3.528,4.59,6.771,9.493,8.011,4.247,1.074,8.374.376,11.035-1.555v37.919h9.433l-.201-34.304c2.415,2.188,6.381,3.349,10.674,2.807,5.018-.633,9.029-3.407,10.399-6.793-2.168-2.94-6.742-4.632-11.761-3.999h0Z" fill="url(#linear-gradient)"/>
</svg>